<?xml version="1.0" encoding="UTF-8"?>
<svg version="1.1" xmlns="http://www.w3.org/2000/svg" width="250" height="250">
<path d="M0 0 C82.5 0 165 0 250 0 C250 82.5 250 165 250 250 C167.5 250 85 250 0 250 C0 167.5 0 85 0 0 Z " fill="#000000" transform="translate(0,0)"/>
<path d="M0 0 C5.37244933 2.90251808 10.08216556 6.22885676 14.875 10 C20.67443161 14.50204807 26.54020536 18.86318151 32.5625 23.0625 C38.99471272 27.55000367 45.31009645 32.16744635 51.56079102 36.90454102 C52.17237061 37.36787842 52.7839502 37.83121582 53.4140625 38.30859375 C54.00276123 38.7677417 54.59145996 39.22688965 55.19799805 39.69995117 C56.97864251 41.04720086 56.97864251 41.04720086 58.99926758 42.05981445 C61.07862023 43.22165898 62.48857134 44.15094126 64 46 C64.85129251 49.80544415 64.66308104 53.43795979 64.4375 57.3125 C64.40591797 58.33923828 64.37433594 59.36597656 64.34179688 60.42382812 C64.25947936 62.95215184 64.14459011 65.4745986 64 68 C60.37843027 66.25095469 57.18776058 64.10381398 53.9375 61.75 C53.33317139 61.31526367 52.72884277 60.88052734 52.10620117 60.43261719 C41.95071743 53.10483885 31.89396716 45.63911165 21.84375 38.16796875 C21.00094482 37.5430957 20.15813965 36.91822266 19.28979492 36.27441406 C17.68910925 35.08750572 16.09018522 33.89821624 14.4934082 32.70605469 C9.79758754 29.22736352 5.00630909 26.01532738 0 23 C-0.93457031 23.70382813 -1.86914062 24.40765625 -2.83203125 25.1328125 C-11.88445552 31.94113366 -20.97877258 38.69005225 -30.10546875 45.3984375 C-33.44691441 47.8546118 -36.78221367 50.31883261 -40.11328125 52.7890625 C-40.95270264 53.41055176 -41.79212402 54.03204102 -42.65698242 54.67236328 C-44.24560213 55.84878104 -45.83309652 57.02672073 -47.41918945 58.20654297 C-52.50802774 61.97027403 -57.70365238 65.53466204 -63 69 C-64.77319785 49.93626311 -64.77319785 49.93626311 -61.18359375 43.9921875 C-58.83815846 42.10867763 -56.47722228 40.54267264 -53.84863281 39.08300781 C-51.00210668 37.41539161 -48.4031184 35.4359801 -45.75268555 33.47631836 C-43.4592524 31.7824041 -41.14510324 30.12090528 -38.82421875 28.46484375 C-33.95490472 24.97799106 -29.12949802 21.43364827 -24.3125 17.875 C-23.5289917 17.29645264 -22.7454834 16.71790527 -21.93823242 16.12182617 C-20.38714687 14.97648121 -18.83612054 13.83105604 -17.28515625 12.68554688 C-13.6328318 9.99156739 -9.97310654 7.30770984 -6.3125 4.625 C-5.67030518 4.15433105 -5.02811035 3.68366211 -4.36645508 3.19873047 C-2.91110732 2.13229962 -1.45557712 1.06611777 0 0 Z " fill="#FBFBFB" transform="translate(124,116)"/>
<path d="M0 0 C4.59239285 2.52209869 8.69683099 5.17030894 12.8125 8.4375 C17.9964811 12.50090954 23.27372357 16.4098293 28.625 20.25 C35.97290879 25.52544192 43.2719013 30.86296635 50.54345703 36.24316406 C51.2857959 36.79198242 52.02813477 37.34080078 52.79296875 37.90625 C53.4991333 38.44161377 54.20529785 38.97697754 54.93286133 39.52856445 C56.94881656 41.02940337 56.94881656 41.02940337 59.08862305 42.11791992 C61.14275226 43.26589952 62.52380006 44.16073544 64 46 C64.84424078 49.80724133 64.66310719 53.4375105 64.4375 57.3125 C64.40591797 58.33923828 64.37433594 59.36597656 64.34179688 60.42382812 C64.25947936 62.95215184 64.14459011 65.4745986 64 68 C59.00797247 66.41951252 55.42276306 63.44592319 51.375 60.25 C49.85009629 59.0649405 48.32401156 57.88139948 46.796875 56.69921875 C46.00732422 56.08739746 45.21777344 55.47557617 44.40429688 54.84521484 C38.17383778 50.0635526 31.80749766 45.46129725 25.47314453 40.81884766 C22.88076985 38.91231346 20.29698402 36.9945878 17.71484375 35.07421875 C16.8522998 34.43411865 15.98975586 33.79401855 15.10107422 33.13452148 C13.44602567 31.90588908 11.7926221 30.67503674 10.14111328 29.44165039 C9.39458496 28.88856201 8.64805664 28.33547363 7.87890625 27.765625 C7.2247876 27.27868164 6.57066895 26.79173828 5.89672852 26.29003906 C3.99617172 24.99739624 2.07753208 23.97773006 0 23 C-0.50635986 23.3810791 -1.01271973 23.7621582 -1.53442383 24.15478516 C-13.16940319 32.90684177 -24.84589038 41.5985895 -36.57958984 50.21777344 C-39.13661564 52.10059453 -41.68795703 53.99092534 -44.23828125 55.8828125 C-45.09800537 56.51952881 -45.95772949 57.15624512 -46.84350586 57.81225586 C-48.48752837 59.03009142 -50.13034112 60.24956243 -51.77172852 61.47094727 C-55.42224737 64.17153169 -59.03686151 66.76580041 -63 69 C-64.78255036 49.83571384 -64.78255036 49.83571384 -61.04296875 43.88671875 C-58.15749106 41.57580177 -55.22904498 39.79773071 -52 38 C-50.38749818 36.86094773 -48.77542344 35.72087455 -47.18530273 34.55078125 C-45.44515203 33.27220029 -43.6845676 32.02689431 -41.91796875 30.78515625 C-37.50640819 27.66505997 -33.15857101 24.46042318 -28.8125 21.25 C-28.02383545 20.66758545 -27.2351709 20.0851709 -26.42260742 19.48510742 C-24.79456423 18.28232755 -23.16671896 17.07927973 -21.5390625 15.87597656 C-17.13361525 12.62102881 -12.72273124 9.37346103 -8.3125 6.125 C-6.70440361 4.94013602 -5.09632845 3.75524324 -3.48828125 2.5703125 C-2.32552083 1.71354167 -1.16276042 0.85677083 0 0 Z " fill="#FBFBFB" transform="translate(124,65)"/>
</svg>
